# xmcd
#
# Track frame offsets: 
#        150
#        18452
#        42522
#        62719
#        79116
#        95135
#        109600
#        130943
#        144476
#        163941
#        182943
#
# Disc length: 2634 seconds
#
# Revision: 0
# Processed by: cddbd v1.5.1PL0 Copyright (c) Steve Scherf et al.
# Submitted via: ExactAudioCopy v0.95a4
#
DISCID=9c0a480b
DTITLE=Tim Hus - Alberta Crude
DYEAR=2004
DGENRE=Country
TTITLE0=Alberta Crude
TTITLE1=The Bullrider
TTITLE2=Hotel and Saloon
TTITLE3=Mountain Fire
TTITLE4=Longest Stretch Of Road
TTITLE5=Silver In The Buckle
TTITLE6=Yukon Trail
TTITLE7=Dangerous Dave's Tractor Show
TTITLE8=One More Oil Boom
TTITLE9=Slocan Slim and The Kootenay Kid
TTITLE10=Curse Of Hank
EXTD=
EXTT0=
EXTT1=
EXTT2=
EXTT3=
EXTT4=
EXTT5=
EXTT6=
EXTT7=
EXTT8=
EXTT9=
EXTT10=
PLAYORDER=
